<?xml version="1.0" standalone="no"?>
<!DOCTYPE svg PUBLIC "-//W3C//DTD SVG 20010904//EN"
 "http://www.w3.org/TR/2001/REC-SVG-20010904/DTD/svg10.dtd">
<svg version="1.0" xmlns="http://www.w3.org/2000/svg"
 width="144.000000pt" height="144.000000pt" viewBox="0 0 144.000000 144.000000"
 preserveAspectRatio="xMidYMid meet">
<metadata>
Created by potrace 1.14, written by Peter Selinger 2001-2017
</metadata>
<g transform="translate(0.000000,144.000000) scale(0.100000,-0.100000)"
fill="#000000" stroke="none">
<path d="M462 1420 c-222 -58 -394 -236 -447 -463 -14 -60 -15 -210 -1 -266
44 -184 173 -348 336 -424 182 -84 403 -77 568 19 l44 26 152 -151 c141 -139
155 -151 189 -151 71 0 126 84 95 144 -5 10 -73 81 -149 158 l-140 139 21 29
c12 16 34 58 50 93 123 271 30 593 -221 764 -45 31 -151 77 -204 88 -73 17
-220 14 -293 -5z m292 -37 c151 -35 310 -162 378 -303 64 -133 77 -246 44
-391 -42 -189 -194 -352 -385 -414 -66 -21 -91 -24 -191 -21 -126 3 -203 25
-291 83 -255 165 -342 490 -202 755 37 70 108 152 173 200 129 94 311 129 474
91z"/>
<path d="M870 1174 c-29 -25 -34 -26 -73 -15 -23 6 -52 14 -65 16 -13 2 -32 7
-42 10 -15 5 -23 -10 -54 -103 -32 -96 -39 -108 -59 -107 -38 3 -150 -25 -200
-50 -43 -21 -51 -22 -80 -11 -61 25 -120 -3 -139 -65 -9 -33 -9 -45 5 -74 9
-19 21 -35 27 -35 5 0 10 -15 10 -32 0 -153 161 -271 382 -282 186 -8 364 69
422 185 9 17 19 52 22 77 3 25 12 52 20 60 55 55 33 143 -44 173 -15 6 -37 4
-65 -6 -35 -12 -45 -12 -62 -1 -30 20 -153 57 -193 58 -18 1 -35 4 -37 8 -3 6
41 155 49 167 1 1 33 -6 71 -16 60 -15 72 -22 84 -47 20 -40 40 -53 82 -54 76
0 112 97 54 148 -35 29 -76 28 -115 -4z m-116 -251 c150 -44 236 -125 236
-223 0 -134 -176 -244 -385 -239 -43 1 -97 6 -120 11 -97 22 -199 88 -232 151
-20 39 -20 115 0 154 33 62 137 130 236 152 60 14 210 10 265 -6z"/>
<path d="M449 806 c-30 -14 -47 -60 -33 -84 29 -46 87 -46 114 2 13 23 13 29
0 52 -19 34 -50 46 -81 30z"/>
<path d="M713 794 c-43 -43 -17 -106 44 -106 29 0 63 33 63 61 0 55 -68 84
-107 45z"/>
<path d="M465 590 c-17 -28 47 -60 130 -65 72 -4 123 7 157 35 18 15 21 21 11
31 -10 10 -16 10 -25 1 -15 -15 -234 -17 -243 -2 -3 6 -10 10 -15 10 -5 0 -12
-4 -15 -10z"/>
</g>
</svg>
